<?xml version="1.0" standalone="no"?><!DOCTYPE svg PUBLIC "-//W3C//DTD SVG 1.1//EN" "http://www.w3.org/Graphics/SVG/1.1/DTD/svg11.dtd"><svg t="1499753360344" class="icon" style="" viewBox="0 0 1024 1024" version="1.1" xmlns="http://www.w3.org/2000/svg" p-id="2850" xmlns:xlink="http://www.w3.org/1999/xlink" width="200" height="200"><defs><style type="text/css"></style></defs><path d="M246.4 297.6m-48 0a1.5 1.5 0 1 0 96 0 1.5 1.5 0 1 0-96 0Z" fill="#ffffff" p-id="2851"></path><path d="M246.4 492.8m-48 0a1.5 1.5 0 1 0 96 0 1.5 1.5 0 1 0-96 0Z" fill="#ffffff" p-id="2852"></path><path d="M249.6 684.8m-48 0a1.5 1.5 0 1 0 96 0 1.5 1.5 0 1 0-96 0Z" fill="#ffffff" p-id="2853"></path><path d="M409.6 329.6l390.4 0c19.2 0 32-12.8 32-32s-12.8-32-32-32L409.6 265.6c-19.2 0-32 12.8-32 32S393.6 329.6 409.6 329.6z" fill="#ffffff" p-id="2854"></path><path d="M796.8 457.6 406.4 457.6c-19.2 0-32 12.8-32 32s12.8 32 32 32l390.4 0c19.2 0 32-12.8 32-32S816 457.6 796.8 457.6z" fill="#ffffff" p-id="2855"></path><path d="M800 652.8 409.6 652.8c-19.2 0-32 12.8-32 32s12.8 32 32 32L800 716.8c19.2 0 32-12.8 32-32S819.2 652.8 800 652.8z" fill="#ffffff" p-id="2856"></path></svg>