<?xml version="1.0" standalone="no"?><!DOCTYPE svg PUBLIC "-//W3C//DTD SVG 1.1//EN" "http://www.w3.org/Graphics/SVG/1.1/DTD/svg11.dtd"><svg t="1499753326798" class="icon" style="" viewBox="0 0 1024 1024" version="1.1" xmlns="http://www.w3.org/2000/svg" p-id="2095" xmlns:xlink="http://www.w3.org/1999/xlink" width="200" height="200"><defs><style type="text/css"></style></defs><path d="M470.5024 470.5024H182.6816A41.33888 41.33888 0 0 0 141.2096 512a41.37472 41.37472 0 0 0 41.46688 41.4976h287.82592v287.82592A41.33888 41.33888 0 0 0 512 882.7904a41.37472 41.37472 0 0 0 41.4976-41.46688v-287.82592h287.82592A41.33888 41.33888 0 0 0 882.7904 512a41.37472 41.37472 0 0 0-41.46688-41.4976h-287.82592V182.6816A41.33888 41.33888 0 0 0 512 141.2096a41.37472 41.37472 0 0 0-41.4976 41.46688v287.82592z" fill="#ffffff" p-id="2096"></path></svg>