<?xml version="1.0" standalone="no"?><!DOCTYPE svg PUBLIC "-//W3C//DTD SVG 1.1//EN" "http://www.w3.org/Graphics/SVG/1.1/DTD/svg11.dtd"><svg t="1495778275044" class="icon" style="" viewBox="0 0 1024 1024" version="1.1" xmlns="http://www.w3.org/2000/svg" p-id="2208" xmlns:xlink="http://www.w3.org/1999/xlink" width="200" height="200"><defs><style type="text/css"></style></defs><path d="M511.563048 64.233953c-247.579725 0-448.281793 200.705138-448.281793 448.284863s200.701045 448.281793 448.281793 448.281793S959.844841 760.098541 959.844841 512.518816 759.142773 64.233953 511.563048 64.233953zM511.563048 896.802016c-212.235752 0-384.2832-172.051541-384.2832-384.2832 0-212.235752 172.047448-384.2832 384.2832-384.2832 212.231659 0 384.2832 172.047448 384.2832 384.2832C895.846248 724.750475 723.79573 896.802016 511.563048 896.802016z" p-id="2209"></path><path d="M765.295913 475.385081 548.694737 475.385081 548.694737 258.783905 474.43136 258.783905 474.43136 475.385081 257.830183 475.385081 257.830183 549.648458 474.43136 549.648458 474.43136 766.250658 548.694737 766.250658 548.694737 549.648458 765.295913 549.648458Z" p-id="2210"></path></svg>