<?xml version="1.0" standalone="no"?><!DOCTYPE svg PUBLIC "-//W3C//DTD SVG 1.1//EN" "http://www.w3.org/Graphics/SVG/1.1/DTD/svg11.dtd"><svg t="1498126226110" class="icon" style="" viewBox="0 0 1024 1024" version="1.1" xmlns="http://www.w3.org/2000/svg" p-id="1059" xmlns:xlink="http://www.w3.org/1999/xlink" width="64" height="64"><defs><style type="text/css"></style></defs><path d="M783.264 1024c-82.928 0-356.512-2.08-463.792-4.896-109.808-2.912-213.52-5.648-229.52-90.016-5.952-31.408-6.352-103.76-6.272-219.2 0.032-57.552 0.08-117.12-1.44-158.352-2.368-64.096-8-182.112-12.064-268.288-2.768-58.24-4.96-104.16-5.248-114.88l-0.32-7.808c-1.488-30.4-4.576-93.696 53.28-126.56C140.16 21.28 200.272 7.2 633.632 0.64 658.448 0.272 681.28 0 702.24 0c93.056 0 198.528 0 213.648 82.192 12 65.216 23.296 495.84 23.408 500.16l0.96 36.032c5.712 211.488 6.048 311.088-7.072 342.08-16.352 38.592-61.024 61.664-122.56 63.36-4 0.112-13.536 0.16-27.36 0.16z" fill="#FFFFFF" p-id="1060"></path><path d="M901.568 583.296c-3.152-122.368-13.36-442.912-22.8-494.24-9.44-51.312-88.064-52.896-244.544-50.528-156.48 2.368-462.448 8.352-497.76 28.416-41.696 23.68-34.608 73.44-33.824 100.272 0.8 26.88 13.36 276.32 17.28 382.928 3.952 106.56-2.336 322.112 7.088 371.84 9.44 49.76 73.92 56.064 193.44 59.232 119.52 3.152 460 5.52 489.088 4.736 29.088-0.768 75.488-8.672 88.864-40.256 13.36-31.552 6.272-240 3.136-362.368zM859.888 903.04c-3.936-3.136-29.888-35.52-35.392-35.52s-8.64 18.176-5.488 22.912c3.152 4.736 36.96 26.848 36.96 31.584s-7.072 18.944-7.072 18.944l-36.96-36.32s-11.792 8.688-11.008 11.84c0.8 3.152 33.808 33.952 29.888 33.952-3.936 0-151.76-2.368-345.984-2.368s-284.64 7.888-309.808-26.848c-25.168-34.72-18.88-407.392-24.368-511.6-5.504-104.192-9.44-212.368-11.008-243.152-1.6-30.8 3.92-46.592 15.712-62.4 11.52-15.408 187.152-23.68 360.16-29.984s303.52 0 315.312 15.776c11.792 15.792 15.728 60 13.376 58.432-2.336-1.6-29.072-11.84-33.008-11.84-3.936 0-7.84 11.04-3.936 14.208 3.952 3.152 37.76 13.44 37.76 18.944 0 5.52 3.936 41.056 0.8 40.272-3.168-0.8-25.184-19.744-29.92-17.376-4.704 2.4-5.488 13.44-3.136 15.808 2.352 2.368 30.672 17.376 30.672 21.312 0 3.952 4.736 31.584 2.368 29.216-2.352-2.368-27.52-17.376-29.888-17.376s-5.504 15.008-2.352 18.16c3.152 3.152 30.672 14.992 31.456 18.16 0.768 3.152 3.136 27.632 3.136 27.632s-26.72-11.04-31.456-11.04-3.152 14.192-3.152 14.192 33.808 15.008 34.592 18.16c0.8 3.136 2.352 41.824 2.352 41.824s-34.592-23.68-37.76-23.68c-3.136 0-5.488 17.376-3.136 19.744s38.528 22.88 39.312 26.048c0.8 3.152 4.72 27.632 2.352 26.848-2.352-0.8-23.584-19.744-29.088-18.944s-7.84 19.744-5.504 22.112 33.024 18.16 33.808 20.528 4.736 40.272 1.6 39.472c-3.168-0.8-28.32-14.992-30.688-14.992s-3.936 15.792-3.936 15.792 36.96 22.88 36.96 26.048c0 3.152 2.352 48.16 2.352 48.16s-34.592-27.632-37.76-27.632c-3.136 0-5.488 15.792-3.136 18.16s41.68 23.68 42.464 26.848c0.8 3.152 0.8 18.944-1.552 18.944s-25.952-13.44-28.32-13.44-5.488 10.272-3.136 15.04 32.256 20.512 32.24 21.28c0 0.8 0.8 49.76-1.568 47.392-2.352-2.368-33.024-18.944-33.024-18.944s-4.72 18.944-2.352 21.312c2.352 2.368 34.592 18.16 35.392 20.528 0.8 2.368 0 46.56 0 46.56s-27.52-17.36-31.456-17.36c-3.952 0-5.52 14.208-3.952 17.376 1.568 3.152 37.76 22.112 37.76 25.28 0 3.136 3.92 29.984 0 29.2-3.952-0.8-31.472-22.912-33.824-22.128-2.368 0.8-3.168 15.792-1.6 18.944 1.6 3.168 37.76 27.648 37.76 30.8 0 3.152 1.568 28.416 1.568 28.416s-33.024-24.48-37.76-24.48-4.704 17.392-4.704 17.392 42.464 26.848 42.464 30c0.032 3.168 1.6 41.056-2.32 37.92z m-628.288-79.728c-12.576 6.32-18.08 67.104-1.568 78.16 16.512 11.04 264.208 3.952 272.864-1.6 8.672-5.504 5.52-69.44 0.8-78.144-4.72-8.672-256.48-6.24-272.08 1.6z m251.632 61.6c-7.84 2.352-224.112 9.44-235.12 3.136-11.008-6.32-6.288-43.424-3.152-48.96 1.984-3.472 235.12-5.504 238.24-0.768 3.2 4.736 7.888 44.208 0.032 46.56zM232.384 780.64c7.072 5.52 90.432 5.52 99.872 3.152 9.44-2.4 8.64-95.552 3.936-102.656-4.72-7.104-106.432-3.808-108.512 0.8-3.936 8.688-2.368 93.168 4.704 98.688z m12.592-82.08c1.968-2.96 70-3.968 72.352-0.8 2.352 3.152 2.352 64.736 0 67.904-2.352 3.152-67.632 3.152-69.984-0.8-2.352-3.952-5.504-61.6-2.352-66.32zM679.84 410.4c-3.952 8.688-2.368 93.168 4.704 98.688 7.072 5.52 90.432 5.52 99.872 3.152 9.44-2.368 8.64-95.52 3.936-102.64-4.736-7.088-106.448-3.808-108.528 0.8z m89.6 83.68c-2.336 3.152-67.616 3.152-69.968-0.8-2.352-3.936-5.504-61.568-2.352-66.304 1.952-2.944 69.984-3.952 72.32-0.8 2.4 3.168 2.4 64.752 0 67.904z m-537.056 151.6c7.072 5.52 90.432 5.52 99.872 3.152 9.44-2.368 8.64-95.52 3.936-102.64-4.72-7.104-106.432-3.808-108.512 0.8-3.936 8.672-2.368 93.152 4.704 98.688z m12.592-82.112c1.968-2.944 70-3.952 72.352-0.8 2.352 3.168 2.352 64.752 0 67.92-2.352 3.152-67.632 3.152-69.984-0.8-2.352-3.952-5.504-61.6-2.352-66.32z m87.296-52.112c9.44-2.368 8.64-95.52 3.936-102.64-4.72-7.088-106.432-3.792-108.512 0.8-3.936 8.688-2.352 93.168 4.72 98.688 7.072 5.536 90.4 5.536 99.84 3.168z m-87.28-85.28c1.968-2.928 70-3.936 72.352-0.768 2.352 3.152 2.352 64.736 0 67.904s-67.632 3.152-69.984-0.8c-2.352-3.952-5.504-61.6-2.352-66.32zM213.536 153.824c-11.008 9.472-12.576 138.16-1.568 149.216 11.008 11.04 570.88 6.304 579.52-3.168 8.672-9.472-1.552-143.68-7.84-152.368-6.304-8.704-550.272-10.784-570.112 6.288z m562.24 127.904c-4.736 2.368-526.08 9.472-533.92 4.736-7.872-4.736-13.376-97.92-7.872-110.528 3.248-7.44 261.072-5.52 363.296-7.104 102.208-1.568 169.84-7.872 172.96-0.768 3.152 7.088 10.24 111.312 5.504 113.68z m-137.6 506.08c9.44-2.368 8.64-95.52 3.92-102.64s-106.432-3.808-108.512 0.8c-3.936 8.672-2.352 93.152 4.72 98.672 7.072 5.52 90.4 5.52 99.84 3.152z m-84.96-18.96c-2.336-3.952-5.488-61.6-2.336-66.32 1.92-2.944 69.968-3.952 72.32-0.8 2.352 3.168 2.352 64.752 0 67.92-2.352 3.152-67.632 3.152-69.984-0.8z m-8.64 58.176c-3.936 6.848-2.352 73.44 4.72 77.824 7.072 4.352 90.432 4.352 99.872 2.496 9.44-1.872 8.64-75.328 3.936-80.928-4.72-5.6-106.432-3.04-108.528 0.608z m89.648 62.72c-2.352 1.92-67.632 1.92-69.984-0.48s-5.504-37.28-2.352-40.16c1.952-1.76 69.984-2.4 72.32-0.48 2.4 1.92 2.4 39.2 0 41.12z m-248.48-245.632c5.504 6.32 95.936 1.6 99.872 0 3.936-1.6 5.504-90 2.352-94.72-3.152-4.752-101.504-4.768-102.24-0.8-1.552 8.672-5.488 89.2 0 95.52z m20.448-78.16c1.008-2.272 58.192-2.352 59.76 0 1.6 2.4 3.952 58.448 0 58.448-3.92 0-59.744 2.368-61.312 0-1.6-2.4-1.6-51.328 1.568-58.432z m282.288 118.432c-3.168 6.32 7.84 211.584 13.344 213.952s82.56 1.6 87.28-1.6c4.704-3.136 0.768-206.048-1.6-212.368-2.336-6.272-95.712-6.656-99.04 0.032z m31.44 191.072c-1.568-3.152-8.64-168.16-6.288-176.848 1.664-6.128 53.472-4.72 54.24-0.768 0.8 3.952 5.52 180 5.52 180s-51.904 0.8-53.472-2.368z m-81.76-360c9.44-2.4 8.64-95.552 3.92-102.656s-106.432-3.808-108.512 0.8c-3.936 8.672-2.352 93.152 4.72 98.672 7.072 5.536 90.4 5.536 99.84 3.168z m-87.296-85.28c1.92-2.944 69.968-3.952 72.32-0.8 2.352 3.168 2.352 64.752 0 67.92-2.352 3.136-67.632 3.136-69.984-0.8-2.352-3.968-5.504-61.6-2.352-66.336zM538.24 649.6c7.072 5.536 90.432 5.536 99.872 3.168 9.44-2.368 8.64-95.52 3.936-102.64s-106.432-3.808-108.512 0.8c-3.936 8.688-2.368 93.168 4.704 98.688z m12.592-82.08c1.92-2.944 69.968-3.952 72.32-0.8s2.352 64.752 0 67.92c-2.352 3.152-67.632 3.152-69.984-0.8-2.352-3.952-5.504-61.6-2.352-66.32z m-165.12 211.584c5.504 6.32 95.936 1.6 99.872 0 3.936-1.6 5.504-90 2.352-94.72-3.152-4.752-101.504-4.768-102.24-0.8-1.552 8.672-5.488 89.2 0 95.52z m20.448-78.16c1.008-2.304 58.192-2.4 59.76 0 1.6 2.352 3.952 58.4 0 58.4-3.92 0-59.744 2.4-61.312 0-1.6-2.368-1.6-51.312 1.568-58.4z m79.424-194.24c3.936-1.6 5.504-90 2.352-94.72-3.152-4.752-101.504-4.768-102.24-0.8-1.552 8.688-5.488 89.216 0 95.52 5.52 6.32 95.952 1.6 99.888 0z m-79.424-78.16c1.008-2.288 58.192-2.368 59.76 0 1.6 2.368 3.952 58.432 0 58.432-3.92 0-59.744 2.368-61.312 0-1.6-2.4-1.6-51.328 1.568-58.432z m273.648 119.2c-3.952 8.704-2.368 93.184 4.704 98.72 7.072 5.504 90.432 5.504 99.872 3.136 9.44-2.352 8.64-95.52 3.936-102.624s-106.448-3.808-108.528 0.8z m89.6 83.68c-2.336 3.168-67.616 3.168-69.968-0.768-2.352-3.952-5.504-61.6-2.352-66.32 1.952-2.944 69.984-3.952 72.32-0.8 2.4 3.168 2.4 64.752 0 67.904z" fill="" p-id="1061"></path></svg>