<?xml version="1.0" standalone="no"?><!DOCTYPE svg PUBLIC "-//W3C//DTD SVG 1.1//EN" "http://www.w3.org/Graphics/SVG/1.1/DTD/svg11.dtd"><svg t="1494740256844" class="icon" style="" viewBox="0 0 1024 1024" version="1.1" xmlns="http://www.w3.org/2000/svg" p-id="13218" xmlns:xlink="http://www.w3.org/1999/xlink" width="200" height="200"><defs><style type="text/css"></style></defs><path d="M998.4 212.224c0 8.0896-6.0928 14.6944-13.6448 14.6944H299.2896c-7.5264 0-13.6448-6.5792-13.6448-14.6944V129.8688c0-8.0896 6.1184-14.6688 13.6448-14.6688h685.4656c7.552 0 13.6448 6.5536 13.6448 14.6688V212.224zM998.4 566.4c0 8.0896-6.0928 14.6944-13.6448 14.6944H299.2896c-7.5264 0-13.6448-6.6048-13.6448-14.6944v-82.3552c0-8.0896 6.1184-14.6688 13.6448-14.6688h685.4656c7.552 0 13.6448 6.5792 13.6448 14.6688v82.3552zM998.4 894.1312c0 8.0896-6.0928 14.6688-13.6448 14.6688H299.2896c-7.5264 0-13.6448-6.5792-13.6448-14.6688v-82.3296c0-8.1152 6.1184-14.6944 13.6448-14.6944h685.4656c7.552 0 13.6448 6.5792 13.6448 14.6944v82.3296zM130.6112 565.5808a14.336 14.336 0 0 1-13.9776 14.6688h-77.056A14.336 14.336 0 0 1 25.6 565.5808v-80.6656c0-8.1152 6.272-14.72 14.0032-14.72h77.0304c7.7312 0 13.9776 6.6048 13.9776 14.72v80.6656zM130.6112 893.3376a14.336 14.336 0 0 1-13.9776 14.6688h-77.056A14.336 14.336 0 0 1 25.6 893.3376v-80.7168a14.336 14.336 0 0 1 14.0032-14.6688h77.0304a14.336 14.336 0 0 1 13.9776 14.6688v80.7168zM130.6112 211.4048a14.336 14.336 0 0 1-13.9776 14.6688h-77.056A14.336 14.336 0 0 1 25.6 211.4048V130.6624a14.336 14.336 0 0 1 14.0032-14.6688h77.0304a14.336 14.336 0 0 1 13.9776 14.6688v80.7424z" p-id="13219"></path></svg>