<?xml version="1.0" standalone="no"?><!DOCTYPE svg PUBLIC "-//W3C//DTD SVG 1.1//EN" "http://www.w3.org/Graphics/SVG/1.1/DTD/svg11.dtd"><svg t="1495008454158" class="icon" style="" viewBox="0 0 1232 1024" version="1.1" xmlns="http://www.w3.org/2000/svg" p-id="3822" xmlns:xlink="http://www.w3.org/1999/xlink" width="240.625" height="200"><defs><style type="text/css"></style></defs><path d="M1143.418994 794.458101M1130.189944 201.653631 100.826816 201.653631c-55.418994 0-100.826816-45.407821-100.826816-100.826816l0 0c0-55.418994 45.407821-100.826816 100.826816-100.826816l1029.363128 0c55.418994 0 100.826816 45.407821 100.826816 100.826816l0 0C1231.01676 156.24581 1185.608939 201.653631 1130.189944 201.653631zM1130.189944 612.826816 100.826816 612.826816c-55.418994 0-100.826816-45.407821-100.826816-100.826816l0 0c0-55.418994 45.407821-100.826816 100.826816-100.826816l1029.363128 0c55.418994 0 100.826816 45.407821 100.826816 100.826816l0 0C1231.01676 567.418994 1185.608939 612.826816 1130.189944 612.826816zM1130.189944 1024 100.826816 1024c-55.418994 0-100.826816-45.407821-100.826816-100.826816l0 0c0-55.418994 45.407821-100.826816 100.826816-100.826816l1029.363128 0c55.418994 0 100.826816 45.407821 100.826816 100.826816l0 0C1231.01676 978.592179 1185.608939 1024 1130.189944 1024z" p-id="3823"></path></svg>