<?xml version="1.0" standalone="no"?><!DOCTYPE svg PUBLIC "-//W3C//DTD SVG 1.1//EN" "http://www.w3.org/Graphics/SVG/1.1/DTD/svg11.dtd"><svg t="1495778982124" class="icon" style="" viewBox="0 0 1024 1024" version="1.1" xmlns="http://www.w3.org/2000/svg" p-id="2979" xmlns:xlink="http://www.w3.org/1999/xlink" width="64" height="64"><defs><style type="text/css"></style></defs><path d="M827.56 383.08c-33.714-78.703-96.817-141.804-175.518-175.517 21.283-16.757 48.072-26.838 77.263-26.838 69.086 0 125.092 56.006 125.092 125.093 0 29.19-10.08 55.978-26.838 77.262z m-5.105 138.356c0 82.027-32.201 156.376-84.379 211.67l43.187 43.186c5.716 5.72 9.25 13.611 9.25 22.335 0 17.442-14.14 31.581-31.583 31.581-8.72 0-16.615-3.533-22.331-9.248l-46.39-46.39c-50.052 34.97-110.833 55.638-176.524 55.638-65.561 0-126.238-20.577-176.234-55.422l-46.068 46.068c-5.782 5.78-13.766 9.355-22.587 9.355-17.64 0-31.942-14.301-31.942-31.942 0-8.823 3.575-16.808 9.358-22.585l42.84-42.841c-52.031-55.268-84.137-129.507-84.137-211.404 0-170.528 138.241-308.77 308.77-308.77 170.53-0.001 308.77 138.242 308.77 308.769zM513.685 276.55c-135.246 0-244.888 109.639-244.888 244.886 0 135.25 109.642 244.89 244.889 244.89s244.887-109.64 244.887-244.888S648.933 276.55 513.686 276.55z m127.768 276.83H513.686c-17.642 0-31.943-14.301-31.943-31.945V351.08c0-17.642 14.301-31.94 31.943-31.94 17.64 0 31.941 14.3 31.941 31.94v138.414h95.828c17.64 0 31.94 14.302 31.94 31.94-0.002 17.645-14.3 31.944-31.942 31.944z m-441.07-165.975c-17.118-21.736-27.413-49.098-27.413-78.912 0-70.565 57.204-127.768 127.768-127.768 29.814 0 57.177 10.297 78.914 27.412-80.383 34.435-144.834 98.885-179.269 179.268z" p-id="2980" fill="#07c7c1"></path></svg>