<?xml version="1.0" standalone="no"?><!DOCTYPE svg PUBLIC "-//W3C//DTD SVG 1.1//EN" "http://www.w3.org/Graphics/SVG/1.1/DTD/svg11.dtd"><svg t="1499753346578" class="icon" style="" viewBox="0 0 1024 1024" version="1.1" xmlns="http://www.w3.org/2000/svg" p-id="2604" xmlns:xlink="http://www.w3.org/1999/xlink" width="200" height="200"><defs><style type="text/css"></style></defs><path d="M232.964 652.018H65.543v55.807h167.421v-55.807z m83.711 31.882v62.184l27.903 17.549h390.65l27.903-27.904V683.9c0-63.982-55.398-115.838-123.768-115.838H440.414c-68.341 0.001-123.739 51.856-123.739 115.838z m56.025 16.649c0-47.496 27.413-76.625 83.602-76.625h167.203c55.317 0 83.602 30.709 83.602 76.625v7.059H372.7v-7.059z m0 62.838h334.406v0.137H372.7v-0.137zM232.964 317.175H65.543v55.807h167.421v-55.807z m0 167.421H65.543v55.808h167.421v-55.808z m306.939 55.589c77.062 0 139.518-62.429 139.518-139.409 0-77.007-62.456-139.409-139.518-139.409s-139.518 62.401-139.518 139.409c0 76.98 62.456 139.409 139.518 139.409z m0-223.037c46.216 0 83.656 37.468 83.656 83.656 0 46.215-37.44 83.656-83.656 83.656-46.215 0-83.656-37.441-83.656-83.656 0-46.188 37.441-83.656 83.656-83.656zM874.746 66.044H205.06c-46.215 0-83.71 37.468-83.71 83.71v111.614h55.807V149.754c0-15.423 12.48-27.904 27.903-27.904h669.685c15.423 0 27.903 12.481 27.903 27.904v725.492c0 15.424-12.48 27.904-27.903 27.904H205.06c-15.423 0-27.903-12.481-27.903-27.904V763.633H121.35v111.613c0 46.242 37.495 83.711 83.71 83.711h669.685c46.215 0 83.711-37.469 83.711-83.711V149.754c0-46.243-37.496-83.71-83.71-83.71z" fill="#e95d57" p-id="2605"></path></svg>