<?xml version="1.0" standalone="no"?><!DOCTYPE svg PUBLIC "-//W3C//DTD SVG 1.1//EN" "http://www.w3.org/Graphics/SVG/1.1/DTD/svg11.dtd"><svg t="1499753342124" class="icon" style="" viewBox="0 0 1024 1024" version="1.1" xmlns="http://www.w3.org/2000/svg" p-id="2481" xmlns:xlink="http://www.w3.org/1999/xlink" width="200" height="200"><defs><style type="text/css"></style></defs><path d="M876.032 257.024h-99.328V179.2c0-35.328-18.432-72.192-54.784-72.192H325.12c-36.352 0-76.8 36.864-76.8 72.192v77.824H171.008c-36.352 0-76.288 36.864-76.288 72.192v236.032c0 35.328 39.936 55.808 76.288 55.808h77.312v240.64c0 35.328 40.448 55.808 76.8 55.808H721.92c36.352 0 54.784-20.48 54.784-55.808v-240.64h99.328c36.352 0 55.808-20.48 55.808-55.808V329.216c0-35.84-19.456-72.192-55.808-72.192zM292.352 179.2c0-11.776 20.48-30.208 32.768-30.208H721.92c12.288 0 10.752 18.432 10.752 30.208v77.824h-440.32V179.2z m440.32 673.792c0 11.776-9.728 22.016-21.504 22.016H314.368c-12.288 0-22.016-10.24-22.016-22.016v-317.952c0-11.776 9.728-21.504 22.016-21.504h396.8c12.288 0 21.504 9.728 21.504 21.504v317.952z m154.112-288.256c0 11.776 1.536 13.312-10.752 13.312h-99.328v-34.816c0-35.328-18.432-72.704-54.784-72.704H325.12c-36.352 0-76.8 36.864-76.8 72.704v34.816H171.008c-12.288 0-32.256-1.536-32.256-13.312V328.704c0-11.776 20.48-29.696 32.256-29.696h705.024c12.288 0 10.752 17.408 10.752 29.696v236.032z m-217.6 44.032H360.448c-12.288 0-22.016 9.216-22.016 20.992s9.728 20.992 22.016 20.992h308.736c12.288 0 22.016-9.216 22.016-20.992s-9.728-20.992-22.016-20.992z m0 123.904H360.448c-12.288 0-22.016 9.728-22.016 21.504 0 11.776 9.728 21.504 22.016 21.504h308.736c12.288 0 22.016-9.728 22.016-21.504 0-11.776-9.728-21.504-22.016-21.504z m101.376-379.904c0 17.408 14.336 31.744 32.256 31.744s32.256-14.336 32.256-31.744c0-17.408-14.336-31.744-32.256-31.744s-32.256 14.336-32.256 31.744z" fill="#e95d57" p-id="2482"></path></svg>