<?xml version="1.0" standalone="no"?><!DOCTYPE svg PUBLIC "-//W3C//DTD SVG 1.1//EN" "http://www.w3.org/Graphics/SVG/1.1/DTD/svg11.dtd"><svg t="1498641484942" class="icon" style="" viewBox="0 0 1024 1024" version="1.1" xmlns="http://www.w3.org/2000/svg" p-id="35209" xmlns:xlink="http://www.w3.org/1999/xlink" width="64" height="64"><defs><style type="text/css"></style></defs><path d="M511.892 927.071c-21.092 0.002-42.177-6.482-59.068-19.453-6.662-4.687-76.552-54.266-156.644-126.948C184.481 679.306 110.746 586.115 77.025 503.687l-1.583-3.87v-3.392c-11.561-32.771-17.42-63.298-17.42-90.795v-17.42c0-77.121 28.324-149.94 79.755-205.045 51.902-55.61 120.836-86.236 194.103-86.236 67.521 0 133.18 27.165 183.278 75.201 52.638-48.653 116.718-75.201 182.551-75.201 71.291 0 138.467 29.03 189.152 81.742 26.098 27.142 46.253 58.909 59.901 94.42 14.118 36.731 20.509 75.597 18.998 115.532v17.007c0 29.88-4.651 54.518-15.525 82.096-3.124 11.747-8.311 22.774-13.607 33.445-0.398 4.463-1.964 8.567-4.675 12.261l-9.662 19.238c-43.301 75.47-115.717 158.232-215.237 245.985-71.391 62.95-130.158 104.772-136.08 108.952-16.889 12.974-37.991 19.463-59.082 19.464zM117.971 491.382c31.655 74.566 102.917 163.471 206.402 257.442 80.488 73.088 152.544 123.746 153.262 124.25l0.86 0.634c18.415 14.328 48.378 14.326 66.792 0l0.835-0.617c0.601-0.423 61.179-43.143 133.182-106.671 94.252-83.156 165.399-164.191 205.799-234.396l7.179-14.351a23.772 23.772 0 0 1 1.918-4.631v-2.104l2.245-4.49c5.434-10.869 10.567-21.135 12.904-30.489l0.35-1.401 0.537-1.34c11.451-28.628 12.995-50.232 12.995-67.589l0.017-18.253c2.622-66.865-21.814-132.191-67.043-179.227-42.592-44.296-98.88-68.69-158.495-68.69-60.763 0-120.232 27.535-167.452 77.532l-15.934 16.871-15.418-17.344c-43.536-48.972-104.415-77.059-167.025-77.059-127.555 0-231.328 111.589-231.328 248.751v17.42c0 23.522 5.43 50.383 16.139 79.836l1.28 3.521v2.395z" p-id="35210"></path></svg>