<?xml version="1.0" standalone="no"?><!DOCTYPE svg PUBLIC "-//W3C//DTD SVG 1.1//EN" "http://www.w3.org/Graphics/SVG/1.1/DTD/svg11.dtd"><svg t="1498640814004" class="icon" style="" viewBox="0 0 1024 1024" version="1.1" xmlns="http://www.w3.org/2000/svg" p-id="18720" xmlns:xlink="http://www.w3.org/1999/xlink" width="64" height="64"><defs><style type="text/css"></style></defs><path d="M924.814979 65.506933 870.381672 65.506933l-39.499715 0L830.881957 54.267618 830.881957 33.131894c0-17.587704-14.826201-31.960813-32.401631-31.960813-17.817828 0-31.961836 14.374132-31.961836 31.960813l0 21.135723 0 11.239316L639.839161 65.506933 639.839161 54.267618 639.839161 33.131894c0-17.587704-14.816996-31.960813-32.396517-31.960813-17.813737 0-31.961836 14.374132-31.961836 31.960813l0 21.135723 0 11.239316L470.603031 65.506933l-21.798483 0L448.804547 54.267618 448.804547 33.131894c0-17.587704-14.821087-31.960813-32.400608-31.960813-17.813737 0-31.957745 14.374132-31.957745 31.960813l0 21.135723 0 11.239316L256.232696 65.506933 256.232696 54.267618 256.232696 33.131894c0-17.587704-14.815973-31.960813-32.395494-31.960813-17.813737 0-31.957745 14.374132-31.957745 31.960813l0 21.135723 0 11.239316-37.175962 0L99.997107 65.506933l-0.503207 0c-19.175056 0-34.919712 15.974781-34.919712 34.919712l0 631.443141 0 0.985959c0 18.943908 15.744656 34.441051 34.919712 34.441051l93.137301 0 0 63.841849L99.499014 831.138645c-19.175056 0-34.924826 4.603527-34.924826 23.292763 0 19.203694 15.74977 26.687366 34.924826 26.687366l93.133209 0 0 121.440657 0 0.47866c0 11.81514 9.343084 20.910711 20.660131 20.910711l0.473546 0 85.780453 0 0.985959 0c11.306819 0 20.401368-9.095571 20.401368-20.910711l0-0.47866L320.93368 881.119797l382.063091 0 0 120.643912 0 0.473546c0 11.820254 9.094548 20.911734 20.655016 20.911734l0.503207 0 84.838474 0 0.502184 0c11.560468 0 21.128564-9.09148 21.128564-20.911734l0-0.473546L830.624217 881.119797l94.191785 0c19.196534 0 34.690609-6.239973 34.690609-25.441621 0-18.691281-15.495098-24.544645-34.690609-24.544645l-94.191785 0 0-63.833667 93.459476 0 0.732309 0c19.201648 0 34.690609-15.501235 34.690609-34.449234L959.506612 101.031107 959.506612 100.426645C959.505589 81.481714 944.01049 65.506933 924.814979 65.506933L924.814979 65.506933 924.814979 65.506933zM279.109189 982.122266l-43.839365 0 0-100.998378 43.839365 0L279.109189 982.122266 279.109189 982.122266 279.109189 982.122266zM279.109189 831.138645l-43.839365 0 0-63.841849 43.839365 0L279.109189 831.138645 279.109189 831.138645 279.109189 831.138645zM702.995748 831.138645 320.932657 831.138645l0-63.841849 382.063091 0L702.995748 831.138645 702.995748 831.138645 702.995748 831.138645 702.995748 831.138645zM788.804839 981.326544l-43.990736 0 0-100.206748 43.990736 0L788.804839 981.326544 788.804839 981.326544 788.804839 981.326544zM788.804839 831.138645l-43.990736 0 0-63.841849 43.990736 0L788.804839 831.138645 788.804839 831.138645 788.804839 831.138645zM833.48902 109.94667l53.857483 0 34.875732 0 0.855043 600.956152 0 12.48506L103.209656 723.387882l-0.855043-613.442235 35.422919 0 51.421224 0M640.898759 68.749142l125.18505 0M547.76555 442.888766 386.745401 442.888766 386.745401 603.920165c-88.923452 0-161.015035-72.094651-161.015035-161.032422 0-88.93368 72.091582-161.032422 161.015035-161.032422C475.673967 281.856343 547.76555 353.954062 547.76555 442.888766L547.76555 442.888766zM547.76555 442.888766M423.780219 479.926652 423.780219 479.926652l123.985331 0c0 68.481174-55.512339 123.993512-123.985331 123.993512L423.780219 479.926652 423.780219 479.926652 423.780219 479.926652zM423.780219 479.926652M633.926477 353.208457 794.941512 353.208457l0 37.032772L633.926477 390.24123 633.926477 353.208457 633.926477 353.208457zM633.926477 353.208457M633.926477 418.129338 794.941512 418.129338l0 37.037887L633.926477 455.167225 633.926477 418.129338 633.926477 418.129338zM633.926477 418.129338M633.926477 488.046493 794.941512 488.046493l0 37.036864L633.926477 525.083357 633.926477 488.046493 633.926477 488.046493zM633.926477 488.046493" p-id="18721"></path></svg>