<?xml version="1.0" standalone="no"?><!DOCTYPE svg PUBLIC "-//W3C//DTD SVG 1.1//EN" "http://www.w3.org/Graphics/SVG/1.1/DTD/svg11.dtd"><svg t="1498641108888" class="icon" style="" viewBox="0 0 1024 1024" version="1.1" xmlns="http://www.w3.org/2000/svg" p-id="34416" xmlns:xlink="http://www.w3.org/1999/xlink" width="64" height="64"><defs><style type="text/css"></style></defs><path d="M727.234006 689.517142h-18.167821V481.140096c0-19.783512-17.388644-36.404243-38.199114-36.404242h-45.037644c-6.321468 0-12.912218 6.069592-12.912218 12.135088 0 6.069592 6.323516 12.132017 12.912218 12.132018h45.037644c4.746732 0 9.744317 4.747756 9.744317 9.233398v208.381141h-81.652807V346.613851c0-19.783512-17.381477-36.401171-38.190923-36.401171H357.421985c-20.817636 0-38.19809 16.616635-38.19809 36.401171v342.903291H298.148239c-6.322492 0-12.905051 6.069592-12.90505 12.135089 0 6.064473 6.322492 12.133041 12.90505 12.133041h426.195339c6.320444 0 12.901979-6.068568 12.901978-12.133041-0.001024-6.065497-3.428992-12.135089-10.01155-12.135089z m-154.089622 0H347.671525V346.613851c0-4.484618 5.004751-9.229302 9.75046-9.229302h205.98013c4.995536-0.265186 9.742269 4.481546 9.742269 9.229302v342.903291z m-61.900011-621.447198c-245.177532 0-443.930056 198.756619-443.930056 443.930056s198.752524 443.929032 443.930056 443.929032c245.17958 0 443.929032-198.755595 443.929032-443.929032S756.423953 68.069944 511.244373 68.069944z m0 863.646248c-231.802518 0-419.715168-187.914698-419.715168-419.716192 0-231.802518 187.91265-419.715168 419.715168-419.715168 231.801494 0 419.716192 187.91265 419.716191 419.715168 0 231.80047-187.915721 419.716192-419.716191 419.716192z m-1.316717-433.43216H410.888253c-6.320444 0-12.903003 6.065497-12.903003 12.132017 0 6.069592 6.320444 12.135089 12.903003 12.135089h98.772169c6.323516 0 12.912218-6.065497 12.912218-12.135089-0.001024-6.066521-6.323516-12.132017-12.644984-12.132017z m0 70.164814H410.888253c-6.320444 0-12.903003 6.065497-12.903003 12.130993 0 7.122146 3.947078 15.035756 12.903003 15.035756h98.772169c6.323516 0 12.912218-6.065497 12.912218-12.132017-0.001024-6.596893-6.323516-15.034732-12.644984-15.034732z m0-153.519318H410.888253c-6.320444 0-12.903003 6.069592-12.903003 12.135089 0 6.067544 6.320444 12.134065 12.903003 12.134065h98.772169c6.323516 0 12.912218-6.066521 12.912218-12.134065-0.001024-6.065497-6.323516-12.135089-12.644984-12.135089z" fill="" p-id="34417"></path></svg>