<?xml version="1.0" standalone="no"?><!DOCTYPE svg PUBLIC "-//W3C//DTD SVG 1.1//EN" "http://www.w3.org/Graphics/SVG/1.1/DTD/svg11.dtd"><svg t="1498640537695" class="icon" style="" viewBox="0 0 1174 1024" version="1.1" xmlns="http://www.w3.org/2000/svg" p-id="8674" xmlns:xlink="http://www.w3.org/1999/xlink" width="73.375" height="64"><defs><style type="text/css"></style></defs><path d="M483.771498 0C295.746737 0 143.321865 152.424872 143.321865 340.449633c0 238.083531 340.449633 680.899266 340.449633 680.899266s340.449633-415.955862 340.449633-680.899266C824.221131 152.424872 671.796259 0 483.771498 0zM185.877892 340.449633c0-164.522196 133.37141-297.893606 297.893606-297.893606s296.906328 133.374234 297.893606 297.893606c1.220326 203.590974-297.893606 617.063812-297.893606 617.063812S185.877892 542.820281 185.877892 340.449633z" p-id="8675"></path><path d="M483.771498 170.22411c-70.509109 0-127.668083 57.158974-127.668083 127.668083 0 70.509109 57.158974 127.668083 127.668083 127.668083 70.509109 0 127.668083-57.158974 127.668083-127.668083C611.439581 227.384497 554.280607 170.22411 483.771498 170.22411zM483.771498 383.005661c-47.006543 0-85.112055-38.105512-85.112055-85.112055 0-47.006543 38.105512-85.112055 85.112055-85.112055 47.006543 0 85.112055 38.105512 85.112055 85.112055C568.883553 344.898737 530.778041 383.005661 483.771498 383.005661z" p-id="8676"></path></svg>