<?xml version="1.0" standalone="no"?><!DOCTYPE svg PUBLIC "-//W3C//DTD SVG 1.1//EN" "http://www.w3.org/Graphics/SVG/1.1/DTD/svg11.dtd"><svg t="1498640497000" class="icon" style="" viewBox="0 0 1024 1024" version="1.1" xmlns="http://www.w3.org/2000/svg" p-id="7328" xmlns:xlink="http://www.w3.org/1999/xlink" width="64" height="64"><defs><style type="text/css"></style></defs><path d="M753.9 881.2H270.1c-44.5 0-80.6-36.1-80.6-80.6V236.1c0-44.5 36.1-80.6 80.6-80.6h80.6v0.1c0.2 0 0.3-0.1 0.5-0.1 11.1 0 20.2 9 20.2 20.2s-9 20.2-20.2 20.2c-0.2 0-0.3 0-0.5-0.1v0.1h-64.5c-31.2 0-56.4 25.3-56.4 56.4v532.2c0 31.2 25.3 56.4 56.4 56.4h451.5c31.2 0 56.4-25.3 56.4-56.4V252.3c0-31.2-25.3-56.4-56.4-56.4h-64.5v-0.1c-10.9-0.3-19.7-9.1-19.7-20.1s8.8-19.8 19.7-20.1v-0.1h80.6c44.5 0 80.6 36.1 80.6 80.6v564.4c0.1 44.6-36 80.7-80.5 80.7zM350.7 357.1h322.5c11.1 0 20.2 9 20.2 20.2 0 11.1-9 20.2-20.2 20.2H350.7c-11.1 0-20.2-9-20.2-20.2s9.1-20.2 20.2-20.2z m0 282.2h322.5c11.1 0 20.2 9 20.2 20.2 0 11.1-9 20.2-20.2 20.2H350.7c-11.1 0-20.2-9-20.2-20.2s9.1-20.2 20.2-20.2z m0-141.1h322.5c11.1 0 20.2 9 20.2 20.2 0 11.1-9 20.2-20.2 20.2H350.7c-11.1 0-20.2-9-20.2-20.2s9.1-20.2 20.2-20.2z m209.6-290.3h-96.8c-17.8 0-32.3-14.4-32.3-32.3s14.4-32.3 32.3-32.3h96.8c17.8 0 32.3 14.4 32.3 32.3s-14.5 32.3-32.3 32.3z" fill="" p-id="7329"></path></svg>