<?xml version="1.0" standalone="no"?><!DOCTYPE svg PUBLIC "-//W3C//DTD SVG 1.1//EN" "http://www.w3.org/Graphics/SVG/1.1/DTD/svg11.dtd"><svg t="1498640651485" class="icon" style="" viewBox="0 0 1024 1024" version="1.1" xmlns="http://www.w3.org/2000/svg" p-id="14067" xmlns:xlink="http://www.w3.org/1999/xlink" width="64" height="64"><defs><style type="text/css"></style></defs><path d="M689.284375 483.337251 159.77871 483.337251 341.9115 302.30042 306.458104 266.848047 62.43588 509.774313 308.653092 754.895567 344.106488 719.442171 159.77871 536.211376 689.284375 536.211376Z" p-id="14068"></path><path d="M417.410881 113.355494l445.777895 0c25.931551 0 47.056641 22.272215 47.056641 49.675277l0 695.651373c0 27.404085-21.127138 49.704953-47.056641 49.704953L417.410881 908.387097l0 49.675277 445.777895 0c51.862078 0 94.11533-44.573082 94.11533-99.380229L957.304105 163.030771c0-54.806124-42.253252-99.351577-94.11533-99.351577L417.410881 63.679194 417.410881 113.355494z" p-id="14069"></path></svg>