<?xml version="1.0" standalone="no"?><!DOCTYPE svg PUBLIC "-//W3C//DTD SVG 1.1//EN" "http://www.w3.org/Graphics/SVG/1.1/DTD/svg11.dtd"><svg t="1495524688871" class="icon" style="" viewBox="0 0 1024 1024" version="1.1" xmlns="http://www.w3.org/2000/svg" p-id="1131" xmlns:xlink="http://www.w3.org/1999/xlink" width="200" height="200"><defs><style type="text/css"></style></defs><path d="M345.1 939.4C345.1 939.4 345.1 939.4 345.1 939.4c-61.7 0-117.6-16-166.2-47.5-41.1-26.6-89-63.1-93.9-109.7-1.7-16.2 1.2-40.4 24.9-64.1 18.6-18.6 47.3-45.4 78.7-67.1 35.9-24.8 66-36.9 92.2-36.9 7.9 0 15.5 1.1 22.5 3.3 18.5 5.8 38.3 24.8 71.8 57.9 14.8 14.7 31.7 31.3 41 38 2.2 1.5 5.5 3.3 11.7 3.3 11.7 0 34.1-6.1 74-35 32.5-23.6 67-55.4 96.6-83.5 34.5-36.3 72.9-78.3 96.4-115.5 11.7-18.4 29.6-51.5 18.8-66.7-6.6-9.3-23.3-26.1-38-41-33.1-33.4-52.1-53.2-57.9-71.8-9-28.6-0.1-63.1 27.3-105.4 22.4-34.6 52.2-67 73.4-88.1 20.9-20.9 42.2-25.3 56.4-25.3 49.9 0 88.9 50.4 117.4 94.3 50.5 78 61 174.9 30.4 280.1-14.1 48.6-36.8 97.9-67.4 146.4-30.3 48.1-67.7 94.6-111.3 138.2C619.2 868.1 473.9 939.4 345.1 939.4zM280.7 678.2c-20.1 0-66.8 26.4-125.6 85.2-7 7-6.6 10.7-6.5 12.1 0.3 2.9 2.6 11.3 17 25.7 11.2 11.2 26.9 23.2 48 36.9 38.1 24.7 82.3 37.2 131.4 37.2 0 0 0 0 0 0 55.2 0 114.2-15.5 175.4-46 61-30.4 122.5-75.7 177.9-131.1 40.2-40.2 74.7-83 102.4-127.1 27.4-43.5 47.6-87.3 60.1-130.2 25.3-86.9 17.4-165.5-22.7-227.4-14.4-22.2-27-38.5-38.6-49.7-14.8-14.3-22.9-15.4-25-15.4-3 0-6.8 2.2-11.1 6.5-26.7 26.7-49.8 54.3-64.9 77.6-18.3 28.3-21.3 44.7-20.2 50.6 4.9 8.7 28.4 32.4 42.6 46.8 18 18.2 35 35.3 44.6 48.9 9.8 13.7 19.9 37.2 12.7 71.3-4.2 20.2-13.9 42.1-29.6 66.8-26.6 41.9-66 85.3-104.7 125.9l-1.1 1.1c-31.2 29.7-68 63.6-103.7 89.5-44.4 32.2-79.8 47.2-111.5 47.2-18.2 0-34.7-5.1-48.8-15.2-13.6-9.6-30.7-26.6-48.9-44.6-14.3-14.1-38-37.6-46.7-42.5C282.7 678.3 281.9 678.2 280.7 678.2z" p-id="1132" fill="#1296db"></path></svg>