<?xml version="1.0" standalone="no"?><!DOCTYPE svg PUBLIC "-//W3C//DTD SVG 1.1//EN" "http://www.w3.org/Graphics/SVG/1.1/DTD/svg11.dtd"><svg t="1496196464925" class="icon" style="" viewBox="0 0 1024 1024" version="1.1" xmlns="http://www.w3.org/2000/svg" p-id="3041" xmlns:xlink="http://www.w3.org/1999/xlink" width="200" height="200"><defs><style type="text/css"></style></defs><path d="M556.023144 885.396245V643.859144c-34.814923 1.533936-108.96983 6.325056-187.880041 20.880562-139.098012 25.657356-229.837642 69.356624-262.408455 126.373199l-41.556465 72.747861 3.335978-83.714633c0.162706-4.074805 4.560876-100.935853 55.262628-199.110827 30.145577-58.371432 70.428026-104.97689 119.725802-138.52189 61.522192-41.862433 136.845715-63.08785 223.879954-63.087851 27.611871 0 56.753585 2.156106 86.911442 6.421247V136.637983L958.687994 541.997198 556.023144 885.396245z m40.932248-283.440467v194.736193l301.453727-257.084193-304.182884-304.157301v198.722993l-23.998577-4.204765c-36.392862-6.376221-71.331605-9.609869-103.84409-9.609868-141.879358 0-245.043972 59.984163-306.629609 178.287569-21.941732 42.148959-34.579563 84.708264-41.821501 118.180609 51.843762-41.215704 133.286656-72.197322 243.335051-92.441388 111.632473-20.535709 210.780611-22.093181 214.94649-22.149463l20.741393-0.280386z" fill="#707070" p-id="3042"></path></svg>