<?xml version="1.0" standalone="no"?><!DOCTYPE svg PUBLIC "-//W3C//DTD SVG 1.1//EN" "http://www.w3.org/Graphics/SVG/1.1/DTD/svg11.dtd"><svg t="1495008274028" class="icon" style="" viewBox="0 0 1024 1024" version="1.1" xmlns="http://www.w3.org/2000/svg" p-id="3146" xmlns:xlink="http://www.w3.org/1999/xlink" width="200" height="200"><defs><style type="text/css"></style></defs><path d="M101.016695 922.902464l-19.532869-65.449641c-12.669554-42.431392-19.09387-86.655615-19.09387-131.447774 0-245.684562 193.641255-445.560822 431.656137-445.560822 7.789407 0 22.00313 0.218988 37.521568 0.656963L531.567661 137.688919c0-29.711695 17.778922-43.018769 35.399231-43.018769 9.900487 0 19.910469 3.993964 29.751604 11.872399l343.94447 275.157827c13.307074 10.638291 20.947078 25.778106 20.947078 41.534975 0 15.747659-7.629771 30.897707-20.947078 41.545208l-343.94447 275.157827c-9.851369 7.878434-19.871583 11.882632-29.78128 11.882632-17.599843 0-35.369555-13.307074-35.369555-43.029002L531.567661 573.150732c-15.468296-0.448208-29.732162-0.677429-37.521568-0.677429-172.464957 0-322.549184 114.52536-373.477087 284.978497L101.016695 922.902464zM494.046093 321.240375c-215.524658 0-390.857942 181.579545-390.857942 404.762627 0 18.178011 1.155313 36.255739 3.465938 54.124711 71.616084-151.050228 219.916688-248.453628 387.392004-248.453628 11.354606 0 36.046984 0.468674 58.746986 1.394766l19.572778 0.786922 0 173.322487 342.818833-274.251178c3.625574-2.908236 5.628184-6.344498 5.628184-9.691733 0-3.337002-2.00261-6.773264-5.628184-9.671267L572.364833 139.302673l0 184.128601-21.216207-0.856507C529.116843 321.698816 505.012865 321.240375 494.046093 321.240375z" p-id="3147"></path></svg>