<?xml version="1.0" standalone="no"?><!DOCTYPE svg PUBLIC "-//W3C//DTD SVG 1.1//EN" "http://www.w3.org/Graphics/SVG/1.1/DTD/svg11.dtd"><svg t="1495008702626" class="icon" style="" viewBox="0 0 1026 1024" version="1.1" xmlns="http://www.w3.org/2000/svg" p-id="9578" xmlns:xlink="http://www.w3.org/1999/xlink" width="200.390625" height="200"><defs><style type="text/css"></style></defs><path d="M0.821333 532.56 69.088 414.346667 137.354667 532.56Z" p-id="9579"></path><path d="M512.816 85.349333c235.269333 0 426.666667 191.397333 426.666667 426.666667 0 6.890667-0.192 13.733333-0.522667 20.549333l34.133333 0c0.304-6.805333 0.522667-13.658667 0.522667-20.549333 0-254.490667-206.314667-460.8-460.8-460.8-201.914667 0-373.370667 129.925333-435.648 310.682667l36.325333 0C174.368 200.490667 330.368 85.349333 512.816 85.349333z" p-id="9580"></path><path d="M512.816 938.677333c-228.373333 0-415.381333-180.352-426.149333-406.112L52.538667 532.565333c10.757333 244.954667 212.682667 440.250667 460.277333 440.250667 186.250667 0 346.570667-110.554667 419.226667-269.584l-37.989333 0C823.818667 842.714667 679.36 938.677333 512.816 938.677333z" p-id="9581"></path><path d="M888.789333 532.56 957.066667 650.778667 1025.333333 532.56Z" p-id="9582"></path><path d="M632.981333 374.624c7.386667 0 13.376-5.989333 13.376-13.381333 0-7.402667-5.989333-13.386667-13.376-13.376l-94.565333-0.005333 104.208-104.202667c5.221333-5.216 5.221333-13.701333 0-18.917333-5.232-5.232-13.696-5.216-18.933333 0L512.858667 335.562667 401.130667 223.861333c-5.232-5.237333-13.696-5.237333-18.928 0-5.232 5.216-5.226667 13.701333-0.010667 18.917333l105.098667 105.082667-95.232-0.005333c-7.381333 0-13.365333 5.984-13.365333 13.386667 0 7.397333 5.984 13.381333 13.365333 13.381333l107.082667 0 0 40.144L392.058667 414.768c-7.381333 0-13.365333 5.994667-13.365333 13.397333 0 7.376 5.984 13.376 13.365333 13.376l107.082667 0 0 106.336c0 7.386667 5.994667 13.397333 13.376 13.397333 7.408-0.032 13.397333-6.010667 13.397333-13.397333L525.914667 441.541333l107.061333 0c7.386667 0 13.376-6 13.376-13.376 0-7.402667-5.989333-13.397333-13.376-13.397333L525.914667 414.768l0-40.144L632.981333 374.624z" p-id="9583"></path><path d="M768.336 657.802667c0.010667-0.314667 0.08-0.613333 0.08-0.928 0-42.416-114.613333-76.8-256-76.8-141.386667 0-256 34.384-256 76.8l0 68.266667 0 0c0.010667 42.410667 114.618667 76.784 256 76.784 141.386667 0 256-34.378667 256-76.789333l-0.08 0L768.336 657.802667zM345.429333 625.157333c45.264-12.56 104.565333-19.488 166.981333-19.488 62.410667 0 121.712 6.928 166.986667 19.488 47.408 13.168 61.573333 27.738667 63.312 31.712-1.738667 3.973333-15.904 18.554667-63.312 31.712-45.258667 12.56-104.56 19.488-166.986667 19.488s-121.717333-6.928-166.981333-19.488c-47.408-13.168-61.573333-27.738667-63.317333-31.712C283.856 652.896 298.021333 638.314667 345.429333 625.157333zM512.410667 776.341333c-148.426667 0-225.146667-36.72-230.314667-51.210667l-0.08 0 0-34.752c41.482667 25.626667 129.056 43.290667 230.394667 43.290667 101.274667 0 188.8-17.648 230.32-43.248l0 34.709333C737.557333 739.626667 660.837333 776.341333 512.410667 776.341333z" p-id="9584"></path><path d="M512.816 85.349333c235.269333 0 426.666667 191.397333 426.666667 426.666667 0 6.890667-0.192 13.733333-0.522667 20.549333l34.133333 0c0.304-6.805333 0.522667-13.658667 0.522667-20.549333 0-254.490667-206.314667-460.8-460.8-460.8-201.914667 0-373.370667 129.925333-435.648 310.682667l36.325333 0C174.368 200.490667 330.368 85.349333 512.816 85.349333z" p-id="9585"></path><path d="M512.816 938.677333c-228.373333 0-415.381333-180.352-426.149333-406.112L52.538667 532.565333c10.757333 244.954667 212.682667 440.250667 460.277333 440.250667 186.250667 0 346.570667-110.554667 419.226667-269.584l-37.989333 0C823.818667 842.714667 679.36 938.677333 512.816 938.677333z" p-id="9586"></path></svg>