<?xml version="1.0" standalone="no"?><!DOCTYPE svg PUBLIC "-//W3C//DTD SVG 1.1//EN" "http://www.w3.org/Graphics/SVG/1.1/DTD/svg11.dtd"><svg t="1499840831721" class="icon" style="" viewBox="0 0 1024 1024" version="1.1" xmlns="http://www.w3.org/2000/svg" p-id="3179" xmlns:xlink="http://www.w3.org/1999/xlink" width="64" height="64"><defs><style type="text/css"></style></defs><path d="M902.59968 585.20576a30.72 30.72 0 0 0-30.72 30.72v179.20512c0 35.41504-28.81024 64.2304-64.2304 64.2304H216.35072c-35.41504 0-64.2304-28.81536-64.2304-64.2304v-179.20512a30.72 30.72 0 0 0-61.44 0v179.20512c0 69.29408 56.37632 125.6704 125.6704 125.6704h591.29856c69.28896 0 125.6704-56.37632 125.6704-125.6704v-179.20512a30.72 30.72 0 0 0-30.72-30.72z" p-id="3180"></path><path d="M357.3504 349.35808l123.08992-118.9376v410.78784a30.72 30.72 0 0 0 61.44 0V227.68128l122.76224 122.2656a30.72 30.72 0 1 0 43.35616-43.53024l-173.74208-173.04576a30.71488 30.71488 0 0 0-43.12576-0.2304L314.56256 305.26976a30.72 30.72 0 0 0-0.59904 43.392 30.69952 30.69952 0 0 0 43.38688 0.69632z" p-id="3181"></path></svg>