<?xml version="1.0" standalone="no"?><!DOCTYPE svg PUBLIC "-//W3C//DTD SVG 1.1//EN" "http://www.w3.org/Graphics/SVG/1.1/DTD/svg11.dtd"><svg t="1500041570735" class="icon" style="" viewBox="0 0 1024 1024" version="1.1" xmlns="http://www.w3.org/2000/svg" p-id="7829" xmlns:xlink="http://www.w3.org/1999/xlink" width="200" height="200"><defs><style type="text/css"></style></defs><path d="M879.91957 58.513946H758.733326a43.876549 43.876549 0 0 0-42.165685 43.840906 44.375551 44.375551 0 0 0 0.249501 4.669235V175.565601H307.183876v-67.804892a43.829025 43.829025 0 0 0-43.579524-49.021024h-2.269272v-0.273263h-117.265513c-55.032812 0-100.192509 44.636933-100.192509 99.681626v766.170326c0 54.415 44.862672 99.681626 100.192509 99.681626H879.91957c55.032812 0 100.192509-44.636933 100.192509-99.681626V158.207453c-0.011881-54.415-44.874553-99.693507-100.192509-99.693507z m-647.823642 702.167355a29.262914 29.262914 0 1 1 29.262914-29.262913 29.251033 29.251033 0 0 1-29.274795 29.262913z m0-175.541838a29.262914 29.262914 0 1 1 29.262914-29.251033 29.251033 29.251033 0 0 1-29.274795 29.251033z m0-175.541839a29.262914 29.262914 0 1 1 29.262914-29.262914A29.262914 29.262914 0 0 1 232.084047 409.621386z m555.852787 351.083677H378.386735a29.262914 29.262914 0 1 1 0-58.513946h409.550099a29.262914 29.262914 0 1 1 0 58.513946z m0-175.541838H378.386735a29.262914 29.262914 0 1 1 0-58.513947h409.550099a29.262914 29.262914 0 1 1 0 58.513947z m0-175.541839H378.386735a29.262914 29.262914 0 1 1 0-58.513946h409.550099a29.262914 29.262914 0 1 1 0 58.537708z" fill="" p-id="7830"></path><path d="M399.39235 146.290806h221.259944c28.169861 0 50.28041-22.169954 50.28041-49.520026v-47.238873c0-26.672855-22.514503-49.520026-50.28041-49.520026H399.39235c-28.169861 0-50.28041 22.169954-50.28041 49.520026v47.238873c0 26.660974 22.514503 49.520026 50.28041 49.520026z" fill="" p-id="7831"></path></svg>