<?xml version="1.0" standalone="no"?><!DOCTYPE svg PUBLIC "-//W3C//DTD SVG 1.1//EN" "http://www.w3.org/Graphics/SVG/1.1/DTD/svg11.dtd"><svg t="1499840840652" class="icon" style="" viewBox="0 0 1024 1024" version="1.1" xmlns="http://www.w3.org/2000/svg" p-id="3308" xmlns:xlink="http://www.w3.org/1999/xlink" width="64" height="64"><defs><style type="text/css"></style></defs><path d="M346.315485 421.566631h361.505836c14.216843 0 30.065832-15.934891 30.065832-30.137418s-15.748769-30.065832-30.065832-30.065832h-361.505836c-14.216843 0-30.151734 15.934891-30.151734 30.065832s15.934891 30.137417 30.151734 30.137418z m0-271.064951h331.368419c14.216843 0 39.830069-8.332531 39.830069-22.549374a25.598908 25.598908 0 0 0-25.613225-25.613225h-32.843343a50.510598 50.510598 0 0 0 7.158532-25.613225V51.227167A51.255085 51.255085 0 0 0 614.688828 0.000716H434.90947a51.226451 51.226451 0 0 0-51.340987 51.226451v25.484371a50.524915 50.524915 0 0 0 7.158531 25.613226h-32.90061a25.613225 25.613225 0 1 0 0 51.226451l-11.453651-3.063852z m114.336064-99.274513h128.424053a25.613225 25.613225 0 1 1 0 51.22645h-128.424053a25.613225 25.613225 0 1 1 0-51.22645z m337.496122 39.085581h-30.151735v60.131664h30.151735c56.73852 0 90.326349 33.816902 90.326349 90.440886v632.384665c0 56.623983-33.573512 90.440886-90.326349 90.440885H225.966255c-56.867374 0-90.440886-33.816902-90.440886-90.440885V240.928249c0-56.609666 33.573512-90.440886 90.440886-90.440886h60.131664v-60.131664h-60.131664C140.679512 90.312748 75.236218 156.056701 75.236218 240.928249v629.392399c0 84.799963 69.122779 153.679352 154.166132 153.679352h568.745321c85.172207 0 150.615501-68.865072 150.615501-153.679352V240.928249c0-84.799963-65.443294-150.615501-150.615501-150.615501zM346.315485 602.319549h361.505836c14.216843 0 30.065832-16.049427 30.065832-30.151735s-15.748769-30.065832-30.065832-30.065831h-361.505836c-14.216843 0-30.151734 15.934891-30.151734 30.065831s15.934891 30.151734 30.151734 30.151735z m0 180.752918h361.505836c14.216843 0 30.065832-16.049427 30.065832-30.151734s-15.748769-30.151734-30.065832-30.151735h-361.505836c-14.216843 0-30.151734 15.934891-30.151734 30.151735S332.098642 783.144052 346.315485 783.144052z" fill="" p-id="3309"></path></svg>