<?xml version="1.0" standalone="no"?><!DOCTYPE svg PUBLIC "-//W3C//DTD SVG 1.1//EN" "http://www.w3.org/Graphics/SVG/1.1/DTD/svg11.dtd"><svg t="1499840868757" class="icon" style="" viewBox="0 0 1024 1024" version="1.1" xmlns="http://www.w3.org/2000/svg" p-id="3677" xmlns:xlink="http://www.w3.org/1999/xlink" width="64" height="64"><defs><style type="text/css"></style></defs><path d="M897.139084 1024 294.202689 1024c-35.683831 0-64.74213-29.168383-64.74213-65.027601L229.460559 233.386247c0-35.827499 29.0583-64.997748 64.74213-64.997748l403.489436 0c28.882912 0 66.680719 14.913509 87.911898 34.655763l138.361838 128.907722c21.598746 20.14154 37.913487 57.627754 37.913487 87.225276l0 539.797004C961.881214 994.831617 932.82478 1024 897.139084 1024zM294.202689 214.645939c-10.200445 0-18.484691 8.426049-18.484691 18.740308l0 725.586152c0 10.342247 8.284246 18.742174 18.484691 18.742174l602.934529 0c10.204176 0 18.486557-8.399927 18.486557-18.742174L915.623775 419.175394c0-16.630065-11.056857-42.083598-23.199621-53.368084l-138.361838-128.935709c-12.514063-11.625932-39.372559-22.225662-56.372056-22.225662L294.202689 214.645939z" p-id="3678"></path><path d="M189.29316 809.354061l-62.454634 0c-10.200445 0-18.484691-8.42978-18.484691-18.742174l0-725.589884c0-10.342247 8.284246-18.740308 18.484691-18.740308l403.46518 0c16.999497 0 43.882249 10.571743 56.396312 22.227528l62.995722 58.681943 67.85432 0-99.336322-92.537269c-21.227448-19.742254-58.995401-34.653897-87.908167-34.653897l-403.46518 0c-35.713684 0-64.738399 29.168383-64.738399 65.023869l0 725.589884c0 35.825633 29.026581 64.995882 64.738399 64.995882l62.454634 0L189.295026 809.354061z" p-id="3679"></path><path d="M946.30907 397.291177l-192.817696 0.513101c-22.91415 0.05784-41.456682-18.740308-41.229051-41.768274l1.488925-155.191545" p-id="3680"></path><path d="M801.258263 533.264764c0 0.513101-0.41981 0.932911-0.932911 0.932911L394.443934 534.197675c-0.513101 0-0.932911-0.41981-0.932911-0.932911l0-26.076717c0-0.513101 0.41981-0.932911 0.932911-0.932911l405.881418 0c0.513101 0 0.932911 0.41981 0.932911 0.932911L801.258263 533.264764z" p-id="3681"></path><path d="M809.745884 662.687453c0 0.513101-0.41981 0.932911-0.932911 0.932911L394.443934 663.620364c-0.513101 0-0.932911-0.41981-0.932911-0.932911l0-26.018877c0-0.513101 0.41981-0.932911 0.932911-0.932911l414.369039 0c0.513101 0 0.932911 0.41981 0.932911 0.932911L809.745884 662.687453z" p-id="3682"></path><path d="M809.745884 792.164251c0 0.513101-0.41981 0.932911-0.932911 0.932911L394.443934 793.097161c-0.513101 0-0.932911-0.41981-0.932911-0.932911l0-26.076717c0-0.513101 0.41981-0.932911 0.932911-0.932911l414.369039 0c0.513101 0 0.932911 0.41981 0.932911 0.932911L809.745884 792.164251z" p-id="3683"></path></svg>