<?xml version="1.0" standalone="no"?><!DOCTYPE svg PUBLIC "-//W3C//DTD SVG 1.1//EN" "http://www.w3.org/Graphics/SVG/1.1/DTD/svg11.dtd"><svg t="1499840999811" class="icon" style="" viewBox="0 0 1024 1024" version="1.1" xmlns="http://www.w3.org/2000/svg" p-id="5309" xmlns:xlink="http://www.w3.org/1999/xlink" width="64" height="64"><defs><style type="text/css"></style></defs><path d="M814.9 912.2c-4.5-160.6-102.2-297.8-241-359.6-4.3-2.1-8.6-4-13-5.8 72.6-50.5 120.5-136.1 120.5-233.5 0-155.1-121.5-280.9-271.3-280.9S138.8 158.2 138.8 313.3c0 97.2 47.7 182.8 120.1 233.2C111.7 605.3 6.9 747.7 3.4 915.1c-0.3 1.6-0.4 3.2-0.4 4.8v40.6C3 979 18 994 36.5 994S70 979 70 960.5v-40.6c0-2.3-0.3-4.6-0.7-6.9C75 730.2 224.9 583.7 409.1 583.7c185.1 0 335.6 147.7 340.1 331.6-0.3 1.5-0.4 3.1-0.4 4.6v20.7c-0.1 1.7-0.1 3.6-0.3 5.4h0.3v14.5c0 18.5 15 33.5 33.5 33.5s33.5-14.9 33.5-33.4v-40.7c0-2.6-0.3-5.2-0.9-7.7M203.5 313.4c0-118.1 92.5-213.9 206.6-213.9s206.6 95.8 206.6 213.9c0 118.1-92.5 213.9-206.6 213.9s-206.6-95.8-206.6-213.9" p-id="5310"></path><path d="M1021.4 843.4c-2.4-78.9-32-154.5-83.7-214.1-34.3-39.4-77.1-70.5-125.3-90.8 58.1-42.2 96.1-111.9 96.1-190.9 0-92.6-52.1-172.7-127.7-210.2-2.7-1.5-10.6-4.9-10.6-4.9-7.4-3.2-14.9-6-22.6-8.3l-11.8-4.4c-17.3-6.4-36.8 3.2-43.4 21.2-6.7 18.1 2 38 19.4 44.4l19.5 7.2v0.3c63.4 20.9 109.2 82.3 109.2 154.8 0 72.2-45.4 133.3-108.3 154.4h-21.6c-22 0-40 18-40 40 0 22.1 18 40 40 40h20.7v0.2c124.5 24.1 221.2 133.4 224.6 264.2-0.2 1.3-0.3 2.7-0.3 4.1v17c-0.1 1.4-0.1 2.8-0.3 4.3l-0.3 6h0.6v6.4c0 18.4 14.9 33.3 33.3 33.3 18.3 0 33.2-14.9 33.2-33.3v-33.6c0-2.6-0.2-5-0.7-7.3" p-id="5311"></path></svg>