<?xml version="1.0" standalone="no"?><!DOCTYPE svg PUBLIC "-//W3C//DTD SVG 1.1//EN" "http://www.w3.org/Graphics/SVG/1.1/DTD/svg11.dtd"><svg t="1499840859153" class="icon" style="" viewBox="0 0 1024 1024" version="1.1" xmlns="http://www.w3.org/2000/svg" p-id="3554" xmlns:xlink="http://www.w3.org/1999/xlink" width="64" height="64"><defs><style type="text/css"></style></defs><path d="M491.64362 950.786824c-17.394819 0-33.766294-6.65072-46.043364-18.928813L18.928814 505.187592c-12.278094-12.279117-18.928814-28.649568-18.928814-46.043364 0-17.394819 6.65072-33.766294 18.928814-46.043365L339.18772 92.840934c12.278094-12.278094 28.648545-18.928814 46.043364-18.928814 17.393796 0 33.764247 6.65072 46.043364 18.928814l109.480525 109.480524L645.633515 97.444963c12.279117-12.278094 28.649568-18.928814 46.043364-18.928813 17.394819 0 33.76527 6.65072 46.043364 18.928813l266.541477 266.541478c12.278094 12.278094 18.928814 28.649568 18.928814 46.043364 0 17.393796-6.65072 33.766294-18.928814 46.043364L884.037096 576.298817l-6.139047-6.139047-5.115702 15.858778c-3.582731 10.7441-8.185737 18.929837-14.83748 25.579533L537.688008 931.858011c-12.279117 12.278094-28.650592 18.928814-46.044388 18.928813zM385.232107 144.001023c-12.789767 0-25.068884 5.115702-34.276942 14.324784L84.413687 424.866262c-9.209082 9.209082-14.324784 20.975504-14.324784 34.277966 0 12.789767 5.115702 25.067861 14.324784 34.276942l373.464663 373.464663c9.209082 9.209082 20.975504 14.324784 34.276943 14.324784 12.789767 0 25.068884-5.115702 34.276942-14.324784l19.953182-19.953182L337.652702 638.203006c-3.070035-3.070035-3.070035-8.698433 0-11.766421l26.602878-26.602879c1.535018-1.535018 3.580684-2.558363 6.139047-2.558362 2.04669 0 4.605053 1.023345 6.140071 2.558362l208.729645 208.729645 55.765142-55.763095L451.226607 562.997378c-3.069012-3.069012-3.069012-8.69741 0-11.765398l26.602878-26.603902c1.535018-1.533994 3.581708-2.558363 6.14007-2.558363 2.045667 0 4.604029 1.024368 6.139047 2.558363l189.800832 189.802878 55.765142-55.763095-170.873041-170.875088c-3.069012-3.069012-3.069012-8.696386 0-11.767445l26.603902-26.602878c1.533994-1.535018 3.580684-2.558363 6.139047-2.558363 2.045667 0 4.604029 1.023345 6.139047 2.558363l170.872017 170.874064 19.953182-19.953182c9.209082-9.209082 14.324784-20.97448 14.324785-34.276942 0-12.789767-5.115702-25.067861-14.324785-34.276943L421.043044 158.325807c-10.7441-9.209082-23.02117-14.324784-35.810937-14.324784z m306.444772 4.603006c-12.789767 0-25.067861 5.115702-34.276943 14.324785L579.126319 241.203454l281.377934 281.377934 78.274641-78.27464c9.209082-9.209082 14.324784-20.97448 14.324784-34.276943s-5.115702-25.067861-14.324784-34.276943L725.443172 162.418164c-9.209082-8.69741-20.976527-13.814135-33.766293-13.814135z" p-id="3555"></path></svg>