<?xml version="1.0" standalone="no"?><!DOCTYPE svg PUBLIC "-//W3C//DTD SVG 1.1//EN" "http://www.w3.org/Graphics/SVG/1.1/DTD/svg11.dtd"><svg t="1499841014139" class="icon" style="" viewBox="0 0 1024 1024" version="1.1" xmlns="http://www.w3.org/2000/svg" p-id="5433" xmlns:xlink="http://www.w3.org/1999/xlink" width="64" height="64"><defs><style type="text/css"></style></defs><path d="M861.12256 759.31136c0-103.18848-61.73696-191.40096-149.01248-227.38944 42.27584-29.24544 70.12352-79.06816 70.12352-135.65952 0-77.2608-51.90656-141.92128-121.5488-158.75072-0.6656-0.15872-1.25952-0.07168-1.85344 0.15872-0.79872-0.06656-1.55648-0.25088-2.3552-0.25088-14.88384 0-26.9568 12.50816-26.9568 27.91936 0 13.9264 9.87648 25.35936 22.74816 27.45856 2.28352 0.98304 5.27872 1.7152 5.39648 1.76128 40.35584 14.17728 69.39648 53.66272 69.39648 100.23936 0 51.92704-36.12672 95.09376-83.77344 104.12544-0.07168 0-0.11264 0.13824-0.18432 0.15872-15.8464 1.05472-28.44672 14.5408-28.44672 31.21152 0 16.9216 12.96384 30.63808 29.15328 31.30368 0.11264 0.04608 0.2048 0.22528 0.32256 0.25088 95.80544 10.10688 163.73248 94.61248 163.73248 197.46304 0 15.22688 11.91424 27.57632 26.61376 27.57632 14.3616 0 25.95328-11.776 26.52672-26.48064 0.02048-0.15872 0.11264-0.27648 0.11264-0.4096 0-0.04608-0.0256-0.09216-0.0256-0.15872l0 0c0-0.18432 0.0256-0.34304 0.0256-0.50688L861.11744 759.31136 861.12256 759.31136 861.12256 759.31136 861.12256 759.31136 861.12256 759.31136 861.12256 759.31136 861.12256 759.31136zM542.03904 536.51456c50.46272-35.03104 83.73248-94.592 83.73248-162.2272 0-107.78624-84.39296-195.17952-188.47744-195.17952-104.10496 0-188.49792 87.38816-188.49792 195.17952 0 67.65568 33.26976 127.19616 83.73248 162.2272-104.33536 43.10016-178.11968 148.62336-178.11968 272.07168 0 6.95296 0.38912 13.78816 0.89088 20.60288l0.04608 0c0 15.02208 11.776 27.1872 26.27072 27.1872 14.52032 0 26.27072-12.16512 26.27072-27.1872 0-0.84992-0.15872-1.64864-0.25088-2.49344-0.50176-5.9904-0.93696-11.9808-0.93696-18.10944 0-131.86048 103.23456-238.75584 230.57408-238.75584 127.36 0 230.59456 106.89536 230.59456 238.75584 0 6.35904-0.4352 12.62592-0.98304 18.82112 0 0.32256-0.09216 0.61952-0.09216 0.93696 0 0.11264 0.02048 0.20992 0.02048 0.30208 0 0.18432 0 0.36352-0.02048 0.52736l0.09216 0c0.4352 14.63296 11.96032 26.38336 26.17856 26.38336 14.22336 0 25.74336-11.7504 26.17856-26.38336l0.07168 0c0.48128-6.78912 0.82432-13.64992 0.82432-20.5824C720.15872 685.13792 646.3744 579.61472 542.03904 536.51456L542.03904 536.51456 542.03904 536.51456 542.03904 536.51456 542.03904 536.51456zM437.2992 514.47296c-74.79296 0-135.40864-62.76608-135.40864-140.1856 0-77.42464 60.61568-140.1856 135.40864-140.1856 74.76736 0 135.38304 62.76608 135.38304 140.1856C572.68224 451.70688 512.06656 514.47296 437.2992 514.47296L437.2992 514.47296 437.2992 514.47296 437.2992 514.47296 437.2992 514.47296z" fill="#e95d57" p-id="5434"></path></svg>