<?xml version="1.0" standalone="no"?><!DOCTYPE svg PUBLIC "-//W3C//DTD SVG 1.1//EN" "http://www.w3.org/Graphics/SVG/1.1/DTD/svg11.dtd"><svg t="1499840954768" class="icon" style="" viewBox="0 0 1024 1024" version="1.1" xmlns="http://www.w3.org/2000/svg" p-id="5062" xmlns:xlink="http://www.w3.org/1999/xlink" width="64" height="64"><defs><style type="text/css"></style></defs><path d="M1001.3 909.8H960.1V443.1c0-44.3-39.4-81.5-86.5-81.5h-102c-14.3 0-29.2 13.6-29.2 27.2s14.3 27.2 29.2 27.2h102c10.7 0 22.1 10.6 22.1 20.7v466.8h-185V141.7c0-44.3-39.4-81.5-86.5-81.5H163.5c-47.1 0-86.5 37.2-86.5 81.5v768.1H29.2C14.9 909.8 0 923.4 0 937s14.3 27.2 29.2 27.2h965.5c14.3 0 29.2-13.6 29.2-27.2 0.1-13.6-7.7-27.2-22.6-27.2z m-349.1 0H141.4V141.7c0-10 11.3-20.7 22.1-20.7H630.1c11.3-0.6 22.1 10 22.1 20.7v768.1z" fill="#e95d57" p-id="5063"></path><path d="M509 481.5H284.6c-14.3 0-29.2 13.6-29.2 27.2s14.3 27.2 29.2 27.2h223.8c14.3 0 29.2-13.6 29.2-27.2 0.1-13.6-14.3-27.2-28.6-27.2zM509 638.6H284.6c-14.3 0-29.2 13.6-29.2 27.2 0 16 9 33.7 29.2 33.7h223.8c14.3 0 29.2-13.6 29.2-27.2 0.1-14.8-14.3-33.7-28.6-33.7zM509 294.8H284.6c-14.3 0-29.2 13.6-29.2 27.2s14.3 27.2 29.2 27.2h223.8c14.3 0 29.2-13.6 29.2-27.2 0.1-13.6-14.3-27.2-28.6-27.2z" fill="#e95d57" p-id="5064"></path></svg>