<?xml version="1.0" standalone="no"?><!DOCTYPE svg PUBLIC "-//W3C//DTD SVG 1.1//EN" "http://www.w3.org/Graphics/SVG/1.1/DTD/svg11.dtd"><svg t="1499840849128" class="icon" style="" viewBox="0 0 1024 1024" version="1.1" xmlns="http://www.w3.org/2000/svg" p-id="3431" xmlns:xlink="http://www.w3.org/1999/xlink" width="64" height="64"><defs><style type="text/css"></style></defs><path d="M776.8 723.2h-19.2V454.4c0-42.4-34.4-76.8-76.8-76.8H565.6V704c0 10.4-8.8 19.2-19.2 19.2-10.4 0-19.2-8.8-19.2-19.2V339.2c0-42.4-34.4-76.8-76.8-76.8H335.2c-42.4 0-76.8 34.4-76.8 76.8v383.2h-19.2c-10.4 0-19.2 8.8-19.2 19.2 0 10.4 8.8 19.2 19.2 19.2H776c10.4 0 19.2-8.8 19.2-19.2 0.8-10.4-8-18.4-18.4-18.4z m-345.6-76.8h-76.8c-10.4 0-19.2-8.8-19.2-19.2 0-10.4 8.8-19.2 19.2-19.2h76.8c10.4 0 19.2 8.8 19.2 19.2 0 10.4-8 19.2-19.2 19.2z m0-115.2h-76.8c-10.4 0-19.2-8.8-19.2-19.2 0-10.4 8.8-19.2 19.2-19.2h76.8c10.4 0 19.2 8.8 19.2 19.2s-8 19.2-19.2 19.2z m0-115.2h-76.8c-10.4 0-19.2-8.8-19.2-19.2s8.8-19.2 19.2-19.2h76.8c10.4 0 19.2 8.8 19.2 19.2s-8 19.2-19.2 19.2zM700 646.4h-76.8c-10.4 0-19.2-8.8-19.2-19.2 0-10.4 8.8-19.2 19.2-19.2H700c10.4 0 19.2 8.8 19.2 19.2 0 10.4-8.8 19.2-19.2 19.2z m0-115.2h-76.8c-10.4 0-19.2-8.8-19.2-19.2 0-10.4 8.8-19.2 19.2-19.2H700c10.4 0 19.2 8.8 19.2 19.2s-8.8 19.2-19.2 19.2z m316-19.2c0 282.4-227.2 512-508 512S0 794.4 0 512 227.2 0 508 0s508 229.6 508 512z" p-id="3432"></path></svg>