<?xml version="1.0" standalone="no"?><!DOCTYPE svg PUBLIC "-//W3C//DTD SVG 1.1//EN" "http://www.w3.org/Graphics/SVG/1.1/DTD/svg11.dtd"><svg t="1499840937971" class="icon" style="" viewBox="0 0 1024 1024" version="1.1" xmlns="http://www.w3.org/2000/svg" p-id="4811" xmlns:xlink="http://www.w3.org/1999/xlink" width="64" height="64"><defs><style type="text/css"></style></defs><path d="M608 118.8H415.1v64H608v-64z m239.9 0h-48v64h43c40.3 0 56 15.7 56 56v96.9H130.3v-96.9c0-40.3 35.3-56 56-56h37v-64h-47c-81.8 0-111.9 69.4-111.9 132.1v595.5c0 62.7 49.3 111.9 111.9 111.9h671.6c62.7 0 111.9-49.3 111.9-111.9V230.8c0-62.7-49.3-112-111.9-112z m48.7 699.7c0 40.3-31.3 76.1-71.6 76.1H204.2c-40.3 0-76.1-35.8-76.1-76.1l2.2-419.8h768.5l-2.2 419.8zM319.6 295c17.4 0 31.4-13 31.4-29V91.9c0-16-14.1-29-31.4-29-17.4 0-31.4 13-31.4 29V266c0 16 14.1 29 31.4 29z m383.9 0c17.9 0 32.4-13 32.4-29V91.9c0-16-14.5-29-32.4-29s-32.4 13-32.4 29V266c0 16 14.5 29 32.4 29zM288.2 566.6c30.9 0 56-25.1 56-56s-25.1-56-56-56-56 25.1-56 56 25.1 56 56 56z m223.9 0c30.9 0 56-25.1 56-56s-25.1-56-56-56-56 25.1-56 56 25.1 56 56 56z m223.8 0c30.9 0 56-25.1 56-56s-25.1-56-56-56-56 25.1-56 56 25.1 56 56 56zM288.2 790.4c30.9 0 56-25.1 56-56s-25.1-56-56-56-56 25.1-56 56c0 31 25.1 56 56 56z m223.9 0c30.9 0 56-25.1 56-56s-25.1-56-56-56-56 25.1-56 56c0 31 25.1 56 56 56z" fill="#999999" p-id="4812"></path></svg>