<?xml version="1.0" standalone="no"?><!DOCTYPE svg PUBLIC "-//W3C//DTD SVG 1.1//EN" "http://www.w3.org/Graphics/SVG/1.1/DTD/svg11.dtd"><svg t="1499909929567" class="icon" style="" viewBox="0 0 1024 1024" version="1.1" xmlns="http://www.w3.org/2000/svg" p-id="1397" xmlns:xlink="http://www.w3.org/1999/xlink" width="200" height="200"><defs><style type="text/css"></style></defs><path d="M506.2228452224604 1004.9314037549942a502.6908294991492 502.6908294991492 0 1 1 491.1157117146292-392.9069484000073 38.607690995572526 38.607690995572526 0 1 1-75.34610831165737-16.823463115389146 425.475447508004 425.475447508004 0 1 0-297.35830532157917 315.9072518334184 38.607690995572526 38.607690995572526 0 1 1 21.56854245562711 74.12389090583846A503.26599063129913 503.26599063129913 0 0 1 506.2228452224604 1004.9314037549942m0 0z m231.7180411149539-240.1297726726485a38.463900712534986 38.463900712534986 0 0 1-25.522775239158733-9.705844105032197L458.41257611248716 530.4234697311975a38.607690995572526 38.607690995572526 0 0 1-13.013020614895021-28.7580566075028v-269.3910952707826a38.607690995572526 38.607690995572526 0 0 1 77.21538199114505 0v251.63299531564957l240.92061922935474 212.9534091785583a38.607690995572526 38.607690995572526 0 0 1-25.594670380677496 67.50953788611285m0 0z m63.555305102581244 84.62058156757703a61.11087029094347 61.11087029094347 0 1 0 17.9018902381705-43.13708491125422 61.82982170613105 61.82982170613105 0 0 0-17.9018902381705 43.13708491125422m0 0z" p-id="1398"></path></svg>