<?xml version="1.0" standalone="no"?><!DOCTYPE svg PUBLIC "-//W3C//DTD SVG 1.1//EN" "http://www.w3.org/Graphics/SVG/1.1/DTD/svg11.dtd"><svg t="1499840891908" class="icon" style="" viewBox="0 0 1024 1024" version="1.1" xmlns="http://www.w3.org/2000/svg" p-id="4056" xmlns:xlink="http://www.w3.org/1999/xlink" width="64" height="64"><defs><style type="text/css"></style></defs><path d="M883.635647 826.448692 716.298478 659.113569c43.50791-55.771211 69.437465-125.923968 69.437465-202.13879 0-181.654246-147.257855-328.918241-328.920288-328.918241-181.664479 0-328.921311 147.263995-328.921311 328.918241 0 181.656293 147.256832 328.919265 328.921311 328.919265 76.372412 0 146.659221-26.033933 202.484667-69.703525l167.30033 167.282934c15.755846 15.758915 41.293475 15.758915 57.032948 0C899.390469 867.73705 899.390469 842.197374 883.635647 826.448692zM199.276091 456.974779c0-142.233422 115.295909-257.537518 257.540587-257.537518 142.242631 0 257.539564 115.304096 257.539564 257.537518 0 142.235468-115.296933 257.539564-257.539564 257.539564C314.572 714.514343 199.276091 599.210247 199.276091 456.974779z" fill="#CCCCCC" p-id="4057"></path></svg>