<?xml version="1.0" standalone="no"?><!DOCTYPE svg PUBLIC "-//W3C//DTD SVG 1.1//EN" "http://www.w3.org/Graphics/SVG/1.1/DTD/svg11.dtd"><svg t="1499840680710" class="icon" style="" viewBox="0 0 1024 1024" version="1.1" xmlns="http://www.w3.org/2000/svg" p-id="2067" xmlns:xlink="http://www.w3.org/1999/xlink" width="64" height="64"><defs><style type="text/css"></style></defs><path d="M512 453.807646c-41.082674 0-74.386174 33.304524-74.386174 74.386174 0 41.084721 33.3035 74.386174 74.386174 74.386174 41.081651 0 74.385151-33.30043 74.385151-74.386174C586.385151 487.11217 553.081651 453.807646 512 453.807646z" p-id="2068"></path><path d="M512 825.740564m-74.386174 0a72.692 72.692 0 1 0 148.772348 0 72.692 72.692 0 1 0-148.772348 0Z" p-id="2069"></path><path d="M953.411315 448.939779l0.011256-0.010233-0.436952-0.436952c-0.007163-0.007163-0.013303-0.014326-0.020466-0.021489s-0.014326-0.013303-0.021489-0.020466L596.128049 91.635023c-42.132586-42.187845-115.702162-42.151006-157.780513 0L81.470523 448.512037c0 0-0.001023 0.001023-0.001023 0.001023s-0.001023 0.001023-0.001023 0.001023l-0.233314 0.233314 0.00614 0.00614c-14.288424 14.541181-14.216793 37.909401 0.228197 52.354392s37.812187 14.516622 52.354392 0.228197l0.00614 0.00614 357.12977-357.113397c14.020318-14.038738 38.446637-14.074553 52.575426 0l355.865987 355.865987 0.024559-0.023536c0.310062 0.333598 0.620124 0.669242 0.944512 0.99363 14.523785 14.523785 38.071084 14.523785 52.594869 0C967.334419 486.694661 967.476659 463.49631 953.411315 448.939779z" p-id="2070"></path></svg>