<?xml version="1.0" standalone="no"?><!DOCTYPE svg PUBLIC "-//W3C//DTD SVG 1.1//EN" "http://www.w3.org/Graphics/SVG/1.1/DTD/svg11.dtd"><svg t="1499840802025" class="icon" style="" viewBox="0 0 1024 1024" version="1.1" xmlns="http://www.w3.org/2000/svg" p-id="2810" xmlns:xlink="http://www.w3.org/1999/xlink" width="64" height="64"><defs><style type="text/css"></style></defs><path d="M512 0C230.4 0 0 230.4 0 512s230.4 512 512 512 512-230.4 512-512S793.6 0 512 0z m293.236364 379.345455L474.763636 709.818182c-16.290909 16.290909-39.563636 18.618182-55.854545 6.981818-2.327273-2.327273-6.981818-4.654545-9.309091-6.981818l-190.836364-190.836364c-18.618182-18.618182-18.618182-46.545455 0-65.163636 18.618182-18.618182 46.545455-18.618182 65.163637 0l158.254545 158.254545 297.890909-297.890909c18.618182-18.618182 46.545455-18.618182 65.163637 0 18.618182 18.618182 18.618182 46.545455 0 65.163637z" fill="#e95d57" p-id="2811"></path></svg>