<?xml version="1.0" standalone="no"?><!DOCTYPE svg PUBLIC "-//W3C//DTD SVG 1.1//EN" "http://www.w3.org/Graphics/SVG/1.1/DTD/svg11.dtd"><svg t="1499840783360" class="icon" style="" viewBox="0 0 1024 1024" version="1.1" xmlns="http://www.w3.org/2000/svg" p-id="2563" xmlns:xlink="http://www.w3.org/1999/xlink" width="64" height="64"><defs><style type="text/css"></style></defs><path d="M512 0c-282.779648 0-512 229.220352-512 512s229.220352 512 512 512 512-229.220352 512-512S794.779648 0 512 0zM506.033883 233.738825c79.159296 0 143.315529 62.286117 143.315529 139.108352S585.170944 511.977765 506.033883 511.977765s-143.315529-62.308352-143.315529-139.130587C362.696119 296.024942 426.874587 233.738825 506.033883 233.738825zM756.869413 749.656942c0 39.112119-82.899529 40.604233-185.143881 40.604233L452.274469 790.261175c-102.244352 0-185.143881-0.044471-185.143881-40.604233l0-11.575296c0-99.239058 82.899529-179.711415 185.143881-179.711415l119.452233 0c102.244352 0 185.143881 80.451291 185.143881 179.711415L756.870583 749.656942z" p-id="2564"></path></svg>