<?xml version="1.0" standalone="no"?><!DOCTYPE svg PUBLIC "-//W3C//DTD SVG 1.1//EN" "http://www.w3.org/Graphics/SVG/1.1/DTD/svg11.dtd"><svg t="1499999609877" class="icon" style="" viewBox="0 0 1024 1024" version="1.1" xmlns="http://www.w3.org/2000/svg" p-id="1976" xmlns:xlink="http://www.w3.org/1999/xlink" width="200" height="200"><defs><style type="text/css"></style></defs><path d="M522.43456 506.33216c41.07776 0 74.38336-33.3056 74.38336-74.38848 0-41.08288-33.3056-74.38336-74.38336-74.38336S448.0512 390.85568 448.0512 431.94368c0 41.08288 33.3056 74.38848 74.38336 74.38848zM596.81792 134.4c0-41.07776-33.3056-74.3936-74.38336-74.3936S448.0512 93.31712 448.0512 134.4s33.3056 74.38336 74.38336 74.38336 74.38336-33.3056 74.38336-74.38336z" fill="" p-id="1977"></path><path d="M81.024 511.19616l-0.01024 0.01024 0.4352 0.4352 0.02048 0.02048 0.0256 0.02048 356.80768 356.81792c42.13248 42.18368 115.70688 42.14784 157.77792 0l356.87936-356.87936 0.23552-0.23552-0.01024-0.00512a37.18656 37.18656 0 0 0-52.5824-52.5824l-0.00512-0.01024-357.13024 357.11488c-14.01856 14.03904-38.4512 14.07488-52.57728 0L135.03488 460.04224l-0.0256 0.02048c-0.31232-0.3328-0.61952-0.6656-0.9472-0.99328a37.18656 37.18656 0 0 0-53.03808 52.12672z" fill="" p-id="1978"></path></svg>