<?xml version="1.0" standalone="no"?><!DOCTYPE svg PUBLIC "-//W3C//DTD SVG 1.1//EN" "http://www.w3.org/Graphics/SVG/1.1/DTD/svg11.dtd"><svg t="1495008871125" class="icon" style="" viewBox="0 0 1024 1024" version="1.1" xmlns="http://www.w3.org/2000/svg" p-id="5585" xmlns:xlink="http://www.w3.org/1999/xlink" width="200" height="200"><defs><style type="text/css"></style></defs><path d="M839.84 624c-6.592 0-12.368 4.08-14.848 10.208C775.456 757.488 650.416 856 504 856c-143.456 0-266.208-94.624-317.712-214.384l46.352 19.408c8.144 3.408 17.52-0.416 20.944-8.576l0 0c3.408-8.16-0.432-17.536-8.592-20.944l-73.792-30.896-29.52-12.352L129.312 617.76l-30.896 73.792c-3.408 8.16 0.432 17.536 8.592 20.944l0 0c8.144 3.408 17.52-0.416 20.944-8.576l24.832-59.344C206.832 779.216 343.76 888 504 888c159.568 0 296.224-107.808 350.72-241.664C859.04 635.68 851.328 624 839.84 624L839.84 624z" p-id="5586"></path><path d="M882.352 323.856l-27.248 53.232C801.008 230.208 664.128 136 504 136c-160.432 0-297.712 94.448-351.616 241.824C148.464 388.56 156.16 400 167.6 400l0 0c6.896 0 12.896-4.432 15.216-10.928C232.24 251.568 357.408 168 504 168c144.432 0 267.856 81.28 318.736 215.2l-48.048-24.592c-7.856-4.032-17.504-0.928-21.536 6.96l0 0c-4.032 7.856-0.928 17.504 6.96 21.536l71.2 36.448 28.48 14.592 14.576-28.48 36.464-71.216c4.032-7.856 0.912-17.504-6.96-21.536l0 0C896.032 312.88 886.384 316 882.352 323.856z" p-id="5587"></path></svg>